<svg version="1.1" id="Layer_1" xmlns="http://www.w3.org/2000/svg" xmlns:xlink="http://www.w3.org/1999/xlink" x="0px" y="0px" viewBox="0 0 275 50" fill="#333333" enable-background="new 0 0 275 50" xml:space="preserve">
	<filter id="pictureFilter">
		<feGaussianBlur stdDeviation=".5"></feGaussianBlur>
	</filter> 
	<radialGradient id="grad1" cx="50%" cy="50%" r="50%" fx="50%" fy="50%">
      <stop offset="0%" style="stop-color:rgb(255,255,255);
      stop-opacity:0"></stop>
      <stop offset="100%" style="stop-color:rgb(0,0,255);stop-opacity:1"></stop>
    </radialGradient>
<g>
	<path class="p" d="M3.3,19.9c-1.9,5.3-1.5,11,0.8,15.7l6.3-17.4c0.2-0.5,0.7-0.7,1.2-0.6l5.3,1.9c0.5,0.2,0.7,0.7,0.6,1.2L9.6,42.6
		c1.7,1.4,3.7,2.5,5.9,3.3c10.6,3.8,22.2-1.7,26-12.2c3.8-10.6-1.7-22.2-12.2-26C18.7,3.8,7.1,9.3,3.3,19.9z M18.3,28.4l8.2,3
		l1.9-5.3l-0.6-1.2L20,22c-0.4-0.2-0.7-0.6-0.5-1l1.7-4.6c0.2-0.4,0.6-0.6,1.1-0.5l8.7,3.1c0.4,0.2,0.6,0.6,0.5,1.1l-1.3,3.6
		l0.5,0.9l4,1.4c0.4,0.2,0.6,0.6,0.5,1l-2.4,6.8c-0.2,0.4-0.6,0.6-1.1,0.5l-4.2-1.5l-1.6,4.5c-0.2,0.4-0.6,0.6-1,0.5L16,34.6
		c-0.4-0.2-0.7-0.6-0.5-1.1l1.7-4.6C17.4,28.4,17.9,28.2,18.3,28.4z"></path>
	<g>
		<path d="M50.6,14.1h10c5.5,0,7.7,3.5,7.7,7.1c0,3.6-2.1,7.1-7.7,7.1h-5.1v7.9h-4.9V14.1z M55.5,24.5h3.8c2.3,0,4.3-0.5,4.3-3.3
			c0-2.8-2-3.3-4.3-3.3h-3.8V24.5z"></path>
		<path d="M70.7,14.1h12c4,0,6.5,2.8,6.5,6.1c0,2.6-1.1,4.6-3.5,5.6v0.1c2.4,0.6,3.1,2.9,3.2,5.2c0.1,1.4,0.1,4,0.9,5.2h-4.9
			c-0.6-1.4-0.5-3.5-0.8-5.3c-0.3-2.3-1.2-3.4-3.7-3.4h-4.9v8.7h-4.9V14.1z M75.6,24.1h5.3c2.2,0,3.4-0.9,3.4-3.2
			c0-2.1-1.2-3.1-3.4-3.1h-5.3V24.1z"></path>
		<path d="M92.5,14.1h4.9v22.2h-4.9V14.1z"></path>
		<path d="M101,14.1h6.9l5.2,15.2h0.1l4.9-15.2h6.9v22.2h-4.6V20.6h-0.1l-5.4,15.7h-3.8l-5.4-15.6h-0.1v15.6H101V14.1z"></path>
		<path d="M134.6,14.1h5l8.3,22.2h-5.1l-1.7-4.9h-8.3l-1.7,4.9h-4.9L134.6,14.1z M134.2,27.7h5.7l-2.8-8.1h-0.1L134.2,27.7z"></path>
		<path d="M154.7,24.7l-7.1-10.6h5.7l4.3,7.1l4.5-7.1h5.3l-7.1,10.6l7.7,11.6h-5.8l-4.8-7.7l-4.9,7.7h-5.5L154.7,24.7z"></path>
		<path d="M170.4,29c-0.1,4.6,3.2,6,7.2,6c2.3,0,5.9-1.3,5.9-4.5c0-2.5-2.5-3.5-4.6-4l-4.9-1.2c-2.6-0.7-5-1.9-5-5.3
			c0-2.2,1.4-6.2,7.6-6.2c4.4,0,8.2,2.4,8.2,6.9h-2.1c-0.1-3.4-2.9-5.1-6.1-5.1c-2.9,0-5.6,1.1-5.6,4.4c0,2.1,1.6,2.9,3.4,3.4
			l5.4,1.3c3.1,0.8,5.7,2.2,5.7,5.8c0,1.5-0.6,6.3-8.5,6.3c-5.2,0-9.1-2.4-8.8-7.8H170.4z"></path>
		<path d="M186,14.1h17.6v1.8h-7.7v20.4h-2.1V15.9H186V14.1z"></path>
		<path d="M204.8,14.1h2.1v13.7c0,5.2,2.4,7.1,6.5,7.1c4.1,0,6.6-2,6.5-7.1V14.1h2.1v14.2c0,4.6-2.5,8.4-8.6,8.4
			c-6.1,0-8.6-3.9-8.6-8.4V14.1z"></path>
		<path d="M225.6,14.1h7.7c6.7,0.2,10.2,3.8,10.2,11.1c0,7.3-3.5,10.9-10.2,11.1h-7.7V14.1z M227.8,34.5h4.5c6.4,0,9.1-2.7,9.1-9.3
			c0-6.6-2.8-9.3-9.1-9.3h-4.5V34.5z"></path>
		<path d="M246.5,14.1h2.1v22.2h-2.1V14.1z"></path>
		<path d="M261.9,13.6c7,0,10.4,5.5,10.4,11.6c0,6.1-3.5,11.6-10.4,11.6c-7,0-10.5-5.5-10.5-11.6C251.4,19.1,254.9,13.6,261.9,13.6z
			 M261.9,35c5.8,0,8.3-4.9,8.3-9.8c0-4.8-2.5-9.7-8.3-9.7c-5.9,0-8.4,4.9-8.4,9.7C253.5,30,256,35,261.9,35z"></path>
	</g>
</g>
</svg>