<?xml version="1.0" encoding="utf-8"?>
<!-- Generator: Adobe Illustrator 25.2.1, SVG Export Plug-In . SVG Version: 6.00 Build 0)  -->
<svg version="1.1" id="Layer_1" xmlns="http://www.w3.org/2000/svg" xmlns:xlink="http://www.w3.org/1999/xlink" x="0px" y="0px"
	 viewBox="0 0 94.7 94.7" style="enable-background:new 0 0 94.7 94.7;" xml:space="preserve">
<style type="text/css">
	.st0{fill:#FFFFFF;}
</style>
<g>
	<path class="st0" d="M4,45.3C2.9,69.3,21.4,89.6,45.3,90.8c24,1.1,44.3-17.4,45.4-41.3C91.9,25.5,73.3,5.1,49.4,4
		C25.4,2.9,5.1,21.4,4,45.3z M45.3,89.8L45.3,89.8c-23.4-1.1-41.5-21-40.4-44.4C6,21.9,25.9,3.8,49.4,5c23.4,1.1,41.5,21,40.4,44.4
		v0C88.6,72.8,68.7,90.9,45.3,89.8z"/>
	<path class="st0" d="M15.3,12.4C-3.9,30.1-5.2,60.1,12.5,79.4c8.4,9.2,20.2,14.7,32.6,15.3c26.1,1.2,48.3-18.9,49.5-45.1
		C95.9,23.5,75.7,1.3,49.6,0.1C37-0.5,24.6,3.9,15.3,12.4z M45.2,92.6L45.2,92.6c-25-1.2-44.3-22.4-43.1-47.4
		C2.6,33.3,7.9,22,16.7,14C35.1-3,63.8-1.8,80.8,16.7c16.9,18.4,15.7,47.1-2.7,64.1C69.1,88.9,57.3,93.2,45.2,92.6z"/>
	<path class="st0" d="M56.1,52.6c0,1.1-0.9,1.9-1.9,1.9c-1.1,0-1.9-0.9-1.9-1.9s0.9-1.9,1.9-1.9C55.2,50.7,56,51.5,56.1,52.6
		L56.1,52.6z M52.5,52.6c0,0.9,0.8,1.6,1.6,1.6c0.9,0,1.6-0.8,1.6-1.6c0-0.9-0.7-1.6-1.6-1.6C53.3,50.9,52.5,51.7,52.5,52.6
		L52.5,52.6z M53.7,53.7h-0.3v-2.2h0.9c0.5,0,0.7,0.2,0.7,0.6c0,0.3-0.2,0.6-0.6,0.6l0.7,1h-0.3l-0.6-1h-0.5V53.7z M54.1,52.5
		c0.3,0,0.7,0,0.7-0.4c0-0.3-0.3-0.4-0.5-0.4h-0.5v0.8L54.1,52.5z"/>
	<path class="st0" d="M56.1,52.6c0,1.1-0.9,1.9-1.9,1.9c-1.1,0-1.9-0.9-1.9-1.9s0.9-1.9,1.9-1.9C55.2,50.7,56,51.5,56.1,52.6
		L56.1,52.6z M52.5,52.6c0,0.9,0.8,1.6,1.6,1.6c0.9,0,1.6-0.8,1.6-1.6c0-0.9-0.7-1.6-1.6-1.6C53.3,50.9,52.5,51.7,52.5,52.6
		L52.5,52.6z M53.7,53.7h-0.3v-2.2h0.9c0.5,0,0.7,0.2,0.7,0.6c0,0.3-0.2,0.6-0.6,0.6l0.7,1h-0.3l-0.6-1h-0.5V53.7z M54.1,52.5
		c0.3,0,0.7,0,0.7-0.4c0-0.3-0.3-0.4-0.5-0.4h-0.5v0.8L54.1,52.5z"/>
	<path class="st0" d="M51.2,34.2c-0.3-0.2-0.5-0.7-0.3-1c2-2.7,2.2-6.3,0.5-9.3l-0.1-0.1c-0.3,0.2-0.4,0.5-0.4,0.8
		c0.2,0.4,0.3,0.7,0.6,1.1c1.3,2.5-0.2,7.1-1.8,7.6c-4.2,1.2-9.7,3.1-12.2,8.5v0l0,0l0,0l0,0c3.6-4.6,10.4-6.2,10.9-6.4
		c0.3-0.1-0.4,0.8-0.6,1c-0.5,0.4-1,0.7-1.6,0.9c-1.4,0.6-7.8,3.5-10,8.7v0v0l0,0l0,0c2.6-3.1,5.9-5.4,9.8-6.7c0.1,0,0.1,0,0.1,0.1
		c0,0.3-0.5,1.2-2.1,2.1c-2.9,1.7-7.5,4.8-8.4,9v0l0,0l0,0c1-2.1,3.9-5.1,7.9-6.8l0.1,0l0,0.1c-0.2,0.8-0.6,1.5-1.2,2.1
		c-1.3,1.2-6.1,3.9-6.5,8.8v0l0,0l0,0c1.1-3.5,5.3-6.3,6.1-6.5c0.1,0,0.1,0,0.1,0.1c0,0.9-0.3,1.8-1,2.4c-0.9,0.7-4,2.8-4.2,6.5v0
		l0,0l0,0c0.6-2.6,3.5-4.4,4.2-4.6c0,0,0.1,0,0.1,0.1c0,0.6-0.2,1.3-0.8,1.7c-1.7,1.2-2.6,3.3-2.4,5.3l0,0l0,0v0
		c0.1-1.7,1.1-3.3,2.7-4c0.2-0.1,0.2,0,0.2,0.3c0,0.6-0.2,1.1-0.5,1.6c-1,1.4-1.3,3.1-0.9,4.7v0l0,0l0,0v0c0-2,0.8-3.2,1.4-3.5
		c0.1-0.1,0.2,0,0.2,0.2c0.1,0.5,0.1,1-0.1,1.4c-0.7,2.4,0.4,5,2.6,6.3l0,0l0,0l0,0c-1.2-1.2-1.9-2.9-1.8-4.7
		c0.1-0.5,0.2-1.1,0.6-0.9c0.6,0.7,0.9,1.7,0.8,2.6v0l0,0l0,0v0c0.7-1.8,0.3-3.7-1.1-5.1c-0.3-0.6-0.4-1.2-0.3-1.8
		c0.1-0.3,0.2-0.5,0.5-0.3c1,0.8,1.6,2,1.6,3.3l0,0l0,0v0c0.5-1.6,0.4-3.3-1.5-5.2c-0.6-0.6-0.2-2.2-0.1-2.6c0-0.1,0.2-0.2,0.3-0.2
		l0.1,0.1c0,0,2.9,2.8,2.2,5.7v0l0,0l0,0v0c0.9-1.2,1-3.6-0.4-5.9c-0.9-1.4-1.6-2.1-1.6-2.6c0-0.5,0.1-1,0.3-1.5
		c0.1-0.1,0.2-0.2,0.4-0.1l0,0c0.5,0.4,3.9,3.4,3,7.2v0l0,0h0l0,0c2-2.8,0.8-6.4-2.1-9.3c-0.4-0.4,0-1.8,0.4-2.3l0.3,0
		c2,1.2,4.7,5.6,3.7,8.5v0l0,0l0,0l0,0c2.3-3,0.3-7.9-2.3-11.2c-0.3-0.6,0.4-1.4,0.4-1.5c0.1-0.2,0.2-0.2,0.3-0.1
		c3.7,2.8,4.7,7.7,3.5,10.4v0l0,0l0,0c2.7-3.3,1.7-8.6-2.1-12.6c-0.2-0.3-0.1-0.6,0.1-1c0.1-0.1,0.2-0.2,0.3-0.1l0.1,0
		c5.6,4,5,8,4.1,10.6v0l0,0l0,0l0,0C55.7,44.3,57.6,38.6,51.2,34.2z"/>
	<path class="st0" d="M52.4,60.1c-1.3-1.6-1.8-3.6-1.5-5.6v0l0,0l0,0c-1.2,1.4-5,5.4-4.6,9.4l0,0.3c0.4,2.1,2.3,3.5,4.4,3.1
		c1.8-0.3,3.2-1.9,3.2-3.8C53.8,62.2,53.3,61,52.4,60.1z"/>
	<path class="st0" d="M19.6,63.1c1-0.1,2,0.4,2.5,1.2c0.2,0.3,0.4,0.7,0.4,1.2c0,0.3,0.1,0.5,0.1,0.8c0.1,0.1,0.2,0.1,0.3,0.1
		c0.2,0,0.3-0.1,0.5-0.1l0.1,0.2l-2.7,1.8L20.7,68c0.4-0.5,0.7-1,1-1.5c0.4-0.6,0.4-1.3,0.1-1.9c-0.4-0.5-1.1-0.7-1.7-0.5
		c-1.1,0.3-2,0.8-2.9,1.5c-0.9,0.6-1.6,1.2-2.3,2c-0.6,0.5-0.7,1.4-0.3,2c0.1,0.3,0.4,0.5,0.8,0.5c0.2,0,0.4-0.1,0.6-0.3l1.2-0.8
		c0.3-0.2,0.5-0.5,0.5-0.7c0-0.2-0.1-0.5-0.3-0.7l0.3-0.2l1.8,2.7l-0.3,0.2c-0.1-0.2-0.3-0.4-0.6-0.4c-0.3,0.1-0.6,0.2-0.9,0.4
		l-1.5,1c-0.4-0.1-0.7-0.3-1-0.5c-0.4-0.3-0.8-0.7-1.1-1.2c-0.6-0.9-0.7-2-0.2-2.9c0.5-1.1,1.3-2,2.3-2.6
		C17.2,63.5,18.4,63.1,19.6,63.1z"/>
	<path class="st0" d="M26.4,69.6l-0.2,0.3c-0.2-0.2-0.4-0.3-0.7-0.3c-0.3,0.1-0.6,0.3-0.8,0.6l-3.1,3.4c-0.4,0.4-0.7,0.8-1,1.3
		c-0.3,0.5-0.3,1.2,0.1,1.6c0.5,0.5,1.3,0.6,1.9,0.2c0.5-0.3,1-0.7,1.4-1.2l2.9-3.1c0.3-0.2,0.5-0.5,0.6-0.9c0-0.3-0.1-0.6-0.3-0.8
		l0.2-0.3l1.5,1.4l-0.2,0.3C28.4,72,28.2,72,28,72c-0.3,0.1-0.5,0.3-0.7,0.5l-3,3.2c-0.6,0.7-1.4,1.3-2.3,1.6c-0.7,0.2-1.5,0-2-0.6
		c-0.8-0.6-1-1.7-0.7-2.6c0.3-0.6,0.6-1.2,1.1-1.6l3.1-3.4c0.3-0.2,0.4-0.5,0.6-0.8c0-0.2-0.1-0.5-0.3-0.6l0.2-0.3L26.4,69.6z"/>
	<path class="st0" d="M23.4,78.9c0.2,0.1,0.5,0.1,0.7-0.1c0.3-0.2,0.6-0.5,0.9-0.8l5.8-5.2l0.2,0.1L29,80.2
		c-0.2,0.5-0.3,1.1-0.4,1.6c0,0.2,0.1,0.4,0.2,0.6l-0.2,0.3l-2.6-1.7l0.2-0.3c0.2,0.1,0.4,0.2,0.6,0.2c0.1,0,0.2-0.1,0.4-0.3
		c0.1-0.1,0.1-0.3,0.2-0.5c0-0.1,0.1-0.3,0.1-0.5l0.2-0.8L26,77.8c-0.4,0.4-0.7,0.6-0.8,0.8c-0.2,0.2-0.4,0.4-0.5,0.6
		c-0.1,0.2-0.1,0.4,0,0.5c0.1,0.1,0.2,0.2,0.4,0.3l-0.2,0.3l-1.6-1L23.4,78.9z M28,78.4l0.9-3.2l-0.1,0l-2.4,2.2L28,78.4z"/>
	<path class="st0" d="M30.7,83.3c0.2,0.1,0.5,0.1,0.7,0c0.2-0.2,0.4-0.5,0.5-0.9l2.1-5.7c0.2-0.3,0.2-0.7,0.2-1
		c-0.1-0.2-0.3-0.3-0.5-0.4l0.1-0.3l2.9,1.1c0.5,0.2,1,0.4,1.3,0.8c0.6,0.6,0.7,1.6,0.3,2.4c-0.2,0.6-0.6,1.1-1.2,1.4
		c-0.3,0.2-0.7,0.3-1.1,0.2l0.6,4.4c0,0.1,0,0.2,0.1,0.3l0.2,0.1l-0.1,0.3l-1.9-0.7l-0.6-4.8l-0.9,2.5c-0.1,0.3-0.2,0.6-0.2,1
		c0,0.2,0.2,0.4,0.5,0.5l-0.1,0.3l-3-1.1L30.7,83.3z M35.8,80.1c0.3-0.1,0.6-0.6,0.9-1.4c0.2-0.4,0.3-0.8,0.3-1.2
		c0.1-0.5-0.2-0.9-0.6-1.1c-0.2-0.1-0.3-0.1-0.5,0c-0.1,0.1-0.2,0.2-0.3,0.4L34.4,80C34.9,80.2,35.3,80.2,35.8,80.1L35.8,80.1z"/>
	<path class="st0" d="M38.5,86c0.3,0,0.5-0.1,0.6-0.4c0.2-0.3,0.4-0.7,0.5-1.1l3.2-7.1l0.3,0l1.1,7.4c0.1,0.5,0.2,1.1,0.3,1.6
		c0,0.2,0.2,0.4,0.4,0.4l0,0.3l-3-0.4l0-0.3c0.2,0,0.4,0,0.6,0c0.1,0,0.2-0.2,0.2-0.4c0-0.2,0-0.3,0-0.5c0-0.1,0-0.3-0.1-0.5
		l-0.1-0.9l-2.1-0.3c-0.2,0.5-0.4,0.9-0.4,1c-0.1,0.2-0.2,0.5-0.2,0.7c0,0.2,0.1,0.4,0.2,0.5c0.1,0.1,0.3,0.1,0.5,0.1l0,0.3
		l-1.9-0.3L38.5,86z M42.4,83.6L42,80.4l-0.1,0l-1.3,3L42.4,83.6z"/>
	<path class="st0" d="M46.9,87c0.4,0,0.6-0.2,0.7-0.3c0.1-0.3,0.1-0.5,0.1-0.8l-0.5-6.5c-0.3-0.4-0.5-0.7-0.6-0.8
		c-0.1-0.1-0.2-0.1-0.3-0.1l0-0.3l2-0.1l3.7,5.5h0l-0.3-4c0-0.3-0.1-0.7-0.2-1c-0.2-0.2-0.4-0.3-0.7-0.3l0-0.3l2-0.1l0,0.3
		c-0.2,0-0.4,0.2-0.6,0.3c-0.1,0.3-0.1,0.5-0.1,0.8l0.6,8.1l-0.3,0l-4.7-7h-0.1l0.4,5.4c0,0.3,0.1,0.6,0.2,0.9
		c0.2,0.3,0.5,0.4,0.8,0.4l0,0.3l-2.1,0.2L46.9,87z"/>
	<path class="st0" d="M53.8,77.4l5.5-1.7l0.8,2.6l-0.3,0.1c-0.2-0.7-0.7-1.3-1.3-1.7c-0.4-0.1-0.8-0.1-1.1,0l2.2,6.9
		c0.1,0.3,0.2,0.7,0.5,0.9c0.3,0.1,0.5,0.1,0.8,0l0.1,0.3l-3.2,1l-0.1-0.3c0.4-0.1,0.6-0.3,0.6-0.5c0.1-0.3,0-0.7-0.1-1l-2.2-6.9
		c-0.4,0.1-0.7,0.3-0.9,0.6c-0.3,0.7-0.4,1.4-0.1,2.1L54.6,80L53.8,77.4z"/>
	<path class="st0" d="M65,83.2l-0.2-0.3c0.2-0.1,0.3-0.2,0.4-0.4c0.1-0.3,0-0.6-0.2-0.8l-3.4-5.7c-0.2-0.3-0.4-0.5-0.6-0.6
		c-0.2,0-0.4,0.1-0.6,0.2l-0.2-0.3l4.7-2.8l1.4,2.4L66.2,75c-0.4-0.5-0.9-1-1.5-1.3c-0.6-0.1-1.2,0-1.6,0.4
		c-0.3,0.1-0.4,0.3-0.4,0.4c0,0.2,0.1,0.4,0.2,0.5l1.6,2.7c0.4-0.2,0.7-0.5,0.7-0.9c0-0.6-0.2-1.1-0.4-1.6l0.2-0.1l2.4,4l-0.2,0.1
		c-0.3-0.5-0.7-0.9-1.2-1.2c-0.4-0.2-0.9-0.1-1.2,0.2l1.7,2.9c0.1,0.2,0.3,0.4,0.4,0.4c0.2,0,0.5-0.1,0.6-0.2c0.5-0.3,0.8-0.7,1-1.2
		c0.2-0.7,0.1-1.5-0.1-2.2l0.2-0.1l1.1,2.7L65,83.2z"/>
	<path class="st0" d="M72.6,78.3l-0.2-0.3c0.2-0.1,0.3-0.3,0.3-0.5c0-0.3-0.1-0.6-0.4-0.8L67.7,72c-0.2-0.2-0.5-0.4-0.8-0.4
		c-0.2,0-0.4,0.1-0.5,0.3l-0.2-0.3l4-3.8l1.9,2L71.9,70c-0.5-0.4-1.1-0.8-1.7-0.9c-0.6,0-1.1,0.3-1.5,0.7c-0.2,0.2-0.3,0.4-0.3,0.5
		c0,0.2,0.1,0.3,0.3,0.5l2.2,2.3c0.3-0.2,0.5-0.6,0.5-1.1c-0.2-0.5-0.4-1-0.8-1.5l0.2-0.2l3.2,3.4l-0.2,0.2
		c-0.4-0.4-0.9-0.7-1.4-0.9c-0.4-0.1-0.9,0.1-1.1,0.4l2.3,2.4c0.1,0.2,0.3,0.3,0.5,0.3c0.2,0,0.4-0.2,0.6-0.3
		c0.4-0.4,0.7-0.9,0.7-1.4c0-0.7-0.2-1.5-0.6-2.1l0.2-0.2l1.7,2.3L72.6,78.3z"/>
	<path class="st0" d="M78.5,71.9c0.1-0.2,0.2-0.3,0.2-0.5c0-0.3-0.2-0.5-0.5-0.7L72.5,67c-0.2-0.2-0.5-0.2-0.8-0.2
		c-0.2,0.1-0.3,0.2-0.4,0.3L71,67l1.6-2.4c0.5-0.9,1.5-1.5,2.6-1.5c1.2,0,2.3,0.4,3.2,1.1c0.9,0.6,1.7,1.4,2.2,2.4
		c0.5,1,0.4,2.1-0.2,3l-1.7,2.5L78.5,71.9z M79.6,69.7c0.1,0,0.3-0.1,0.4-0.2c0.3-0.5,0.3-1.1,0-1.6c-0.6-1-1.5-1.7-2.5-2.3
		c-0.7-0.5-1.4-0.9-2.2-1.1c-1.1-0.4-1.9-0.2-2.3,0.4c-0.1,0.1-0.2,0.4-0.1,0.5c0.1,0.2,0.3,0.3,0.4,0.4l5.6,3.7
		C79.2,69.5,79.4,69.6,79.6,69.7z"/>
	<path class="st0" d="M17.1,32.1l0.1-0.2c0.7,0.3,1.5,0.5,2.3,0.5c0.5,0,0.9-0.2,1.2-0.6c0.2-0.3,0.2-0.7,0-1
		c-0.2-0.3-0.4-0.6-0.7-0.7c-0.3-0.2-0.7-0.3-1-0.3c-0.3,0.1-0.7,0.2-1,0.3l-0.7,0.3c-0.6,0.3-1.2,0.4-1.8,0.4
		c-0.6,0-1.1-0.2-1.6-0.5c-0.6-0.3-1-0.8-1.4-1.4c-0.3-0.5-0.3-1.2,0-1.7c0.2-0.3,0.4-0.6,0.7-0.7c0.2-0.1,0.3-0.2,0.5-0.4v-0.3
		c-0.1-0.1-0.2-0.2-0.2-0.3l0.1-0.2l2.6,1.5L16.2,27c-0.6-0.2-1.2-0.4-1.9-0.4c-0.5,0-1,0.2-1.2,0.6c-0.2,0.3-0.2,0.6-0.1,0.8
		c0.3,0.6,0.9,1,1.6,1c0.5-0.1,1-0.3,1.4-0.5l0.8-0.3c0.3-0.1,0.7-0.2,1-0.3c0.7,0,1.3,0.2,1.9,0.5c0.6,0.4,1.1,0.9,1.4,1.5
		c0.3,0.6,0.3,1.4-0.1,2c-0.1,0.2-0.2,0.3-0.4,0.5c-0.1,0.1-0.3,0.3-0.5,0.4l-0.2,0.1L20,33l-0.1,0.1v0.2c0.1,0.1,0.2,0.2,0.3,0.3
		L20,33.8L17.1,32.1z"/>
	<path class="st0" d="M22.3,28.9c0.1-0.2,0.2-0.5,0-0.7c-0.2-0.4-0.4-0.7-0.6-1.1l-4.1-6.6l0.2-0.2l6.8,3.3c0.5,0.3,1,0.5,1.5,0.7
		c0.2,0.1,0.4,0,0.6-0.1l0.3,0.2l-2.1,2.3l-0.3-0.2c0.1-0.2,0.3-0.3,0.3-0.5c0-0.1-0.1-0.2-0.2-0.4c-0.1-0.1-0.3-0.2-0.4-0.3
		C24.2,25.1,24,25,23.8,25l-0.8-0.4l-1.4,1.6c0.3,0.5,0.5,0.8,0.6,0.9c0.1,0.2,0.3,0.4,0.5,0.6c0.1,0.1,0.3,0.2,0.5,0.1
		c0.1-0.1,0.3-0.2,0.4-0.3l0.3,0.2l-1.3,1.4L22.3,28.9z M22.6,24.3l-3-1.5l-0.1,0.1l1.8,2.8L22.6,24.3z"/>
	<path class="st0" d="M21.4,16.9l4.6-3.4l1.6,2.2l-0.2,0.2c-0.4-0.6-1.1-1-1.8-1.2c-0.4,0-0.7,0.1-1,0.4l4.3,5.8
		c0.2,0.3,0.4,0.5,0.7,0.7c0.3,0,0.6-0.1,0.8-0.3l0.2,0.3l-2.7,2l-0.2-0.3c0.3-0.2,0.4-0.4,0.4-0.6c-0.1-0.3-0.2-0.7-0.4-0.9
		L23.4,16c-0.3,0.2-0.5,0.5-0.7,0.9c-0.1,0.7,0.1,1.5,0.6,2.1l-0.2,0.2L21.4,16.9z"/>
	<path class="st0" d="M32.2,20.3c0.2-0.1,0.3-0.2,0.5-0.4c0.1-0.3,0.1-0.6-0.1-0.9l-2.9-6c-0.2-0.4-0.4-0.6-0.6-0.6
		c-0.2,0-0.4,0-0.6,0.1l-0.2-0.3l3-1.5l0.2,0.3c-0.2,0.1-0.4,0.2-0.5,0.4c-0.1,0.3-0.1,0.6,0.1,0.9l2.9,6c0.2,0.3,0.3,0.5,0.5,0.6
		c0.2,0,0.5,0,0.7-0.1l0.2,0.3l-3,1.5L32.2,20.3z"/>
	<path class="st0" d="M35.6,15.6l0.3-0.1c0.3,0.7,0.7,1.4,1.3,1.9c0.4,0.3,0.8,0.5,1.3,0.3c0.4-0.1,0.6-0.4,0.7-0.7
		c0.1-0.3,0.1-0.7,0-1c-0.1-0.3-0.3-0.7-0.6-0.9c-0.3-0.2-0.6-0.3-0.9-0.4L37,14.5c-0.6-0.2-1.1-0.5-1.6-0.9
		c-0.4-0.4-0.7-0.9-0.8-1.4c-0.2-0.6-0.2-1.3-0.1-1.9c0.1-0.6,0.6-1.1,1.2-1.3c0.3-0.1,0.7-0.1,1-0.1c0.2,0,0.4,0.1,0.6,0.1
		c0.1,0,0.2-0.1,0.2-0.2c0-0.1,0-0.2,0-0.4l0.3-0.1l0.8,2.9l-0.3,0.1c-0.3-0.6-0.7-1.1-1.1-1.5c-0.3-0.4-0.8-0.5-1.3-0.4
		c-0.3,0.1-0.5,0.3-0.6,0.6c-0.2,0.7,0,1.4,0.5,1.8c0.4,0.3,0.9,0.5,1.4,0.6l0.8,0.3c0.3,0.1,0.7,0.3,0.9,0.5c0.5,0.4,0.9,1,1,1.7
		c0.2,0.7,0.2,1.4,0,2c-0.2,0.7-0.8,1.2-1.5,1.4c-0.2,0.1-0.4,0.1-0.6,0.1c-0.2,0-0.4,0-0.6-0.1l-0.2,0l-0.1,0l-0.1,0l-0.2,0.2
		c0,0.1,0,0.2,0,0.4l-0.3,0.1L35.6,15.6z"/>
	<path class="st0" d="M41.7,16.8c0.2,0,0.4-0.1,0.6-0.2c0.2-0.2,0.3-0.5,0.2-0.8l-0.6-6.6c0-0.3-0.1-0.6-0.3-0.8
		c-0.2-0.1-0.4-0.1-0.6-0.1l0-0.3l5.4-0.5l0.3,2.8l-0.2,0c-0.1-0.6-0.4-1.2-0.8-1.7c-0.4-0.4-1-0.5-1.6-0.4c-0.3,0-0.4,0.1-0.5,0.2
		c-0.1,0.2-0.1,0.3-0.1,0.5l0.3,3.2c0.4,0,0.8-0.2,1-0.6c0.2-0.5,0.3-1,0.3-1.6l0.2,0l0.4,4.6l-0.2,0c-0.1-0.6-0.3-1.1-0.5-1.6
		c-0.3-0.3-0.7-0.5-1.1-0.4l0.3,3.2c0,0.4,0.1,0.7,0.3,0.8c0.3,0.1,0.5,0.1,0.8,0.1l0,0.3l-3.4,0.3L41.7,16.8z"/>
	<path class="st0" d="M46.9,16.2c0.3,0,0.5-0.2,0.6-0.4c0.2-0.4,0.4-0.7,0.5-1.1l2.8-7.3l0.3,0l1.5,7.4c0.1,0.5,0.2,1.1,0.4,1.6
		c0.1,0.2,0.2,0.4,0.5,0.4l0,0.3l-3.1-0.3l0-0.3c0.2,0,0.4,0,0.6-0.1c0.1,0,0.2-0.2,0.2-0.4c0-0.2,0-0.3,0-0.5c0-0.1,0-0.3-0.1-0.5
		l-0.2-0.8L48.7,14c-0.2,0.5-0.3,0.9-0.4,1c-0.1,0.2-0.2,0.5-0.2,0.8c0,0.2,0.1,0.4,0.2,0.5c0.2,0.1,0.3,0.1,0.5,0.1l0,0.3l-1.9-0.2
		L46.9,16.2z M50.8,13.7l-0.6-3.2l-0.1,0l-1.1,3.1L50.8,13.7z"/>
	<path class="st0" d="M60.3,9.8c0.2,0.2,0.4,0.4,0.6,0.5c0.1,0,0.3,0,0.3-0.1c0.1-0.1,0.2-0.2,0.3-0.4l0.3,0.1l-0.9,3.1l-0.2-0.1
		c0-0.6-0.1-1.2-0.2-1.8c-0.2-0.8-0.6-1.3-1.1-1.5c-0.7-0.2-1.3,0.1-1.6,0.7c-0.6,0.9-1,1.9-1.3,2.9c-0.3,0.8-0.4,1.6-0.5,2.4
		c-0.1,1.2,0.3,1.9,1,2.2c0.5,0.1,1,0.1,1.5-0.2c0.4-0.2,0.8-0.5,1.1-0.8l0.2,0.4c-0.4,0.4-0.8,0.7-1.3,1c-0.6,0.3-1.2,0.4-1.8,0.2
		c-0.9-0.3-1.6-1-1.9-1.8c-0.4-1.2-0.4-2.5,0-3.7c0.3-1.2,1-2.4,2-3.2c0.7-0.6,1.7-0.8,2.6-0.6C59.7,9.2,60.1,9.5,60.3,9.8z"/>
	<path class="st0" d="M63.7,10.8l5,2.7L67.4,16l-0.2-0.1c0.4-0.6,0.5-1.4,0.3-2.1c-0.2-0.3-0.5-0.6-0.8-0.8l-3.4,6.4
		c-0.2,0.3-0.3,0.6-0.3,1c0,0.2,0.2,0.4,0.6,0.6l-0.2,0.3l-3-1.6l0.2-0.3c0.2,0.2,0.5,0.2,0.8,0.1c0.3-0.2,0.5-0.5,0.6-0.8l3.4-6.4
		C65,12,64.6,12,64.2,12c-0.7,0.2-1.3,0.7-1.6,1.4l-0.2-0.1L63.7,10.8z"/>
	<path class="st0" d="M65,21.8c0.2,0.1,0.3,0.2,0.5,0.2c0.3,0,0.6-0.2,0.7-0.5l4.1-5.2c0.2-0.2,0.3-0.5,0.3-0.8
		c-0.1-0.2-0.2-0.4-0.4-0.5l0.2-0.3l2.6,2l-0.2,0.3c-0.2-0.1-0.4-0.2-0.6-0.3c-0.2,0-0.5,0.2-0.7,0.5l-4.1,5.2
		c-0.2,0.2-0.3,0.5-0.3,0.7c0.1,0.2,0.2,0.4,0.4,0.6l-0.2,0.3l-2.6-2L65,21.8z"/>
	<path class="st0" d="M77.8,23.3c-0.8,2.4-2.8,4.2-5.3,4.7c-1.5,0.3-3-0.7-3.3-2.3c-0.1-0.5,0-1,0.1-1.4c0.3-1.1,1-2.1,1.9-2.9
		c0.9-0.9,2-1.4,3.3-1.7c1.5-0.3,3,0.7,3.3,2.2C78,22.4,78,22.9,77.8,23.3L77.8,23.3z M72.7,26.7c0.7-0.4,1.4-1,2.1-1.6
		c0.9-0.7,1.6-1.6,2.2-2.5c0.4-0.7,0.4-1.3,0-1.7c-0.5-0.5-1.3-0.5-2.4,0.1c-1.5,0.9-2.8,2.1-3.8,3.4c-0.7,1-0.9,1.8-0.4,2.3
		C70.8,27.4,71.6,27.3,72.7,26.7L72.7,26.7z"/>
	<path class="st0" d="M73,29.7c0.2,0.3,0.4,0.5,0.6,0.5c0.3,0,0.5-0.1,0.8-0.2l5.7-3.1c0.3-0.5,0.4-0.8,0.5-0.9c0-0.1,0-0.2,0-0.3
		l0.3-0.2l1,1.8l-3.5,5.6l0,0l3.5-1.9c0.3-0.1,0.6-0.4,0.8-0.6c0.1-0.3,0.1-0.5,0-0.8l0.3-0.2l1,1.8l-0.3,0.2
		c-0.1-0.2-0.3-0.3-0.5-0.4c-0.3,0-0.5,0.1-0.8,0.3L75.2,35l-0.1-0.2l4.4-7.2l0-0.1l-4.7,2.6c-0.3,0.1-0.5,0.3-0.7,0.5
		c-0.2,0.3-0.2,0.6,0,0.9l-0.3,0.2l-1-1.9L73,29.7z"/>
	<path class="st0" d="M28.6,26.9c-5.4,4.9-8.6,11.8-9,19.1c0,0.4,0,0.9,0,1.3c0,15.3,12.5,27.7,27.8,27.7
		c15.3,0,27.7-12.5,27.7-27.8c0-15.3-12.5-27.7-27.8-27.7C40.4,19.6,33.7,22.2,28.6,26.9L28.6,26.9z M27.4,65.3
		c-9.9-11-9.1-28,2-37.9s28-9.1,37.9,2s9.1,28-2,37.9c-5.3,4.7-12.2,7.2-19.2,6.9C38.9,73.8,32.2,70.7,27.4,65.3z"/>
</g>
</svg>
